<?xml version="1.0" standalone="no"?><!DOCTYPE svg PUBLIC "-//W3C//DTD SVG 1.1//EN" "http://www.w3.org/Graphics/SVG/1.1/DTD/svg11.dtd"><svg t="1699319726512" class="icon" viewBox="0 0 1024 1024" version="1.1" xmlns="http://www.w3.org/2000/svg" p-id="20556" xmlns:xlink="http://www.w3.org/1999/xlink" width="200" height="200"><path d="M787.692308 669.538462h-118.153846v118.153846a118.153846 118.153846 0 0 1-118.153847 118.153846H196.923077a118.153846 118.153846 0 0 1-118.153846-118.153846v-354.461539a118.153846 118.153846 0 0 1 118.153846-118.153846h118.153846V196.923077a118.153846 118.153846 0 0 1 118.153846-118.153846h354.461539a118.153846 118.153846 0 0 1 118.153846 118.153846v354.461538a118.153846 118.153846 0 0 1-118.153846 118.153847zM196.923077 374.153846A59.076923 59.076923 0 0 0 137.846154 433.230769v354.461539A59.076923 59.076923 0 0 0 196.923077 846.769231h354.461538a59.076923 59.076923 0 0 0 59.076923-59.076923v-354.461539A59.076923 59.076923 0 0 0 551.384615 374.153846H196.923077zM846.769231 196.923077A59.076923 59.076923 0 0 0 787.692308 137.846154h-354.461539A59.076923 59.076923 0 0 0 374.153846 196.923077v118.153846H551.384615a118.153846 118.153846 0 0 1 118.153847 118.153846v177.230769h118.153846a59.076923 59.076923 0 0 0 59.076923-59.076923V196.923077z" p-id="20557"/></svg>